<svg width="61" height="55" viewBox="0 0 61 55" fill="none" xmlns="http://www.w3.org/2000/svg">
<g opacity="0.35">
<path d="M60.7594 0.397069C59.0819 4.72513 57.1869 8.84721 54.7011 12.7798C52.0637 16.9521 48.974 20.8303 45.6495 24.4729C38.965 31.7951 31.2457 38.1549 22.8368 43.3992C18.9841 45.8025 14.9387 47.8739 10.7721 49.675C8.97265 50.4527 7.15756 51.1926 5.30044 51.8246C3.58669 52.4079 1.76252 52.6765 0.306656 53.7979C0.11633 53.9445 -0.169574 54.3219 0.130333 54.5031C1.37857 55.2587 3.3428 54.2675 4.61082 53.8432C6.41603 53.2384 8.1817 52.529 9.9177 51.7488C13.8709 49.9716 17.5999 47.7091 21.2392 45.3675C29.4174 40.1059 37.0865 33.8936 43.8509 26.9043C47.6788 22.9478 51.2019 18.6799 54.243 14.0873C57.0114 9.90676 59.6479 5.25655 60.9275 0.375646C60.9604 0.254529 60.7858 0.329507 60.7594 0.397069Z" fill="black"/>
<path d="M60.7171 0.170518C59.646 4.70126 54.457 5.96103 50.4593 6.52624C45.1129 7.28342 39.6388 7.24964 34.3953 8.65443C29.6702 9.91997 25.544 12.6999 22.5523 16.5542C19.8416 20.0468 18.2102 24.2949 16.9472 28.4912C16.3218 30.5691 15.9008 32.7006 15.3792 34.8057C14.8272 37.0327 14.1335 39.2367 13.3565 41.3946C12.5309 43.6843 11.6386 45.9451 10.205 47.9332C9.55083 48.8412 8.75491 49.6923 7.82635 50.3209C6.78409 51.0254 5.65367 51.556 4.63531 52.2942C4.56692 52.3437 4.4005 52.6065 4.59741 52.6024C6.5946 52.5612 8.43524 50.8433 9.74115 49.4731C11.225 47.9167 12.2599 45.9871 13.1052 44.0278C14.9524 39.7467 16.1315 35.1979 17.589 30.7775C19.0086 26.4717 20.2569 22.0901 22.7706 18.2622C25.5983 13.9564 29.891 11.0438 34.7933 9.58051C40.3671 7.91619 46.2788 7.9615 51.9457 6.74622C55.6616 5.94949 60.1363 4.27941 60.9956 0.101309C61.0376 -0.103024 60.7476 0.0444578 60.7171 0.170518Z" fill="black"/>
<path d="M60.4449 1.26468C59.5336 4.17971 58.3389 7.0033 57.3568 9.89609C56.3747 12.7897 56.2132 15.9445 55.5895 18.9304C54.4212 24.5157 52.2889 29.7476 48.9405 34.3797C43.1236 42.4253 34.3068 48.1837 24.8408 50.976C21.7362 51.8913 18.5361 52.4706 15.3014 52.6172C13.6972 52.6897 12.0889 52.651 10.4889 52.5282C8.90037 52.4063 7.33574 51.9984 5.76534 52.2662C5.6055 52.2934 5.18366 52.6881 5.41106 52.8553C5.79501 53.1396 6.03147 53.3324 6.5044 53.3991C7.07044 53.479 7.63812 53.54 8.20662 53.5936C9.44745 53.7122 10.6924 53.7452 11.9382 53.7336C14.2971 53.7122 16.6411 53.4453 18.9695 53.0844C23.7153 52.3503 28.3292 50.8013 32.6301 48.6789C41.0844 44.5057 48.414 37.7982 52.7585 29.3835C54.9954 25.0513 56.2264 20.2511 56.9869 15.4584C57.3626 13.0904 57.5323 10.7043 58.217 8.39654C58.9379 5.9668 59.9546 3.63592 60.6772 1.20453C60.7258 1.04222 60.4762 1.16251 60.4449 1.26468Z" fill="black"/>
<path d="M25.1726 14.4161C24.5745 17.2116 24.4253 20.1226 23.959 22.947C23.4506 26.021 23.0411 29.1025 22.3482 32.1444C21.0332 37.9225 19.0525 43.7345 15.0285 48.2067C14.5902 48.6937 15.0211 49.1468 15.4907 48.6689C19.6243 44.4521 21.6578 38.4952 22.9184 32.8554C23.5989 29.8119 24.0941 26.7263 24.4649 23.63C24.6527 22.0538 24.7392 20.467 24.9015 18.8875C25.0548 17.3937 25.2822 15.8785 25.283 14.3757C25.2822 14.3057 25.18 14.3782 25.1726 14.4161Z" fill="black"/>
<path d="M32.0793 9.69095C32.4129 12.2698 32.9188 14.7811 33.0704 17.388C33.255 20.556 33.1364 23.7306 32.6651 26.8689C32.2193 29.8366 31.4415 32.778 30.2123 35.5192C29.652 36.7691 28.9665 37.9663 28.15 39.067C27.4241 40.0458 26.3233 40.8228 25.7079 41.8568C25.6568 41.9425 25.7095 42.0208 25.8043 42.0051C26.8284 41.8379 27.785 40.5946 28.412 39.8522C29.3455 38.7482 30.0944 37.4999 30.7058 36.1924C31.9804 33.4668 32.6634 30.4603 33.0276 27.4868C33.4214 24.2653 33.5261 21.0026 33.3778 17.7621C33.2575 15.1222 33.1207 12.1248 32.2053 9.61761C32.1806 9.5517 32.0727 9.64316 32.0793 9.69095Z" fill="black"/>
<path d="M42.1715 7.37079C42.0825 9.4413 42.3083 11.5316 42.2687 13.6095C42.2267 15.8242 42.0529 18.0381 41.8131 20.2396C41.5717 22.456 41.2042 24.6583 40.7099 26.8326C40.4825 27.8345 40.2295 28.8142 39.8019 29.7526C39.3669 30.7092 38.6105 31.3922 38.0939 32.2787C38.0593 32.3381 38.1129 32.3891 38.1714 32.3562C39.6289 31.5389 40.4322 29.4667 40.8384 27.9425C41.4333 25.7072 41.8156 23.4166 42.1056 21.1245C42.3981 18.8043 42.5398 16.4751 42.5868 14.1377C42.6313 11.9403 42.7755 9.4792 42.2333 7.33371C42.2251 7.29829 42.1723 7.35019 42.1715 7.37079Z" fill="black"/>
<path d="M50.7984 6.81048C51.1609 9.80214 51.1247 12.5944 50.4985 15.5646C50.1936 17.009 49.7652 18.4344 49.1851 19.7922C48.9487 20.3459 48.6183 20.86 48.2838 21.3601C48.1124 21.6172 47.8158 21.866 47.7647 22.1832C47.7565 22.2343 47.782 22.2582 47.8323 22.2508C48.568 22.1453 49.0517 20.7759 49.2931 20.2066C49.8674 18.8488 50.3337 17.4778 50.6797 16.0433C51.067 14.4408 51.2944 12.7987 51.3842 11.1534C51.4608 9.742 51.4765 8.05625 50.9549 6.71738C50.9236 6.63664 50.791 6.75116 50.7984 6.81048Z" fill="black"/>
<path d="M56.1989 17.8765C54.6688 19.0309 53.269 19.9528 51.416 20.5288C50.0211 20.9621 48.4087 21.0701 47.509 22.3612C47.4843 22.3974 47.4801 22.4666 47.5436 22.4501C48.3329 22.2425 49.006 21.7861 49.811 21.585C50.6918 21.3642 51.5519 21.0923 52.394 20.7512C53.8358 20.1679 55.2802 19.1487 56.2541 17.9326C56.2936 17.8831 56.2483 17.8403 56.1989 17.8765Z" fill="black"/>
<path d="M54.5786 24.6591C53.2834 25.3932 52.0417 26.1693 50.6765 26.7733C49.041 27.4967 47.3009 27.9885 45.5822 28.4722C43.9582 28.9295 42.3236 29.3274 40.726 29.877C40.0471 30.111 39.0806 30.4331 39.046 31.2809C39.0403 31.4251 39.2306 31.3328 39.2792 31.2859C40.3684 30.237 41.8144 29.9141 43.2291 29.4815C44.7204 29.025 46.2158 28.5875 47.7054 28.1261C50.1212 27.3788 52.5888 26.3152 54.5951 24.7522C54.6354 24.7217 54.6552 24.6162 54.5786 24.6591Z" fill="black"/>
<path d="M49.0325 34.9243C47.458 36.0605 45.9618 37.1514 44.1566 37.9102C42.283 38.6987 40.2133 39.1098 38.1889 39.212C36.0698 39.3183 33.9449 39.1766 31.8249 39.2903C30.1886 39.3784 27.9805 39.5235 26.8138 40.8376C26.752 40.9076 26.6886 41.093 26.8542 41.0584C27.7383 40.873 28.521 40.3564 29.4216 40.1595C30.6031 39.9016 31.8579 39.8423 33.0625 39.7822C35.2014 39.6751 37.3411 39.7286 39.4668 39.4279C42.9223 38.9393 46.5698 37.4826 49.0564 34.9647C49.0828 34.9375 49.068 34.898 49.0325 34.9243Z" fill="black"/>
<path d="M40.2422 43.7477C38.1775 44.7282 36.1844 45.501 33.9162 45.8685C31.6397 46.2368 29.3187 46.2252 27.0208 46.2022C24.7805 46.1799 22.5494 46.1676 20.3157 46.3686C18.9365 46.493 16.6534 46.3307 15.9654 47.8657C15.9324 47.939 15.9316 48.0486 16.0379 48.0511C16.7992 48.0692 17.5778 47.5402 18.3465 47.4133C19.4374 47.2337 20.5777 47.1695 21.6809 47.0813C23.9484 46.9017 26.2249 46.886 28.4964 46.7839C32.4801 46.6051 36.8864 46.1832 40.2571 43.8334C40.2974 43.8054 40.3139 43.7148 40.2422 43.7477Z" fill="black"/>
<path d="M23.5582 16.349C23.0738 17.8634 22.8991 19.5137 22.6428 21.0808C22.385 22.6569 22.1403 24.2347 21.8684 25.8084C21.332 28.9064 20.5929 31.9689 19.7921 35.0083C19.0316 37.897 18.089 40.7412 16.7312 43.409C16.0358 44.7743 15.1476 46.0176 14.1927 47.2123C13.2551 48.3863 12.0736 49.3338 11.1508 50.5137C11.1071 50.5697 11.136 50.6513 11.2134 50.6109C13.4553 49.4418 15.1633 46.8168 16.3432 44.6606C17.846 41.9144 18.8957 39.0035 19.7361 35.9937C20.6045 32.8834 21.3551 29.7188 21.9351 26.5425C22.2457 24.842 22.5044 23.1323 22.7755 21.426C23.0441 19.7394 23.4808 18.029 23.6159 16.3284C23.6184 16.2897 23.564 16.3317 23.5582 16.349Z" fill="black"/>
<path d="M30.6459 10.2347C30.7943 11.4936 31.2169 12.7254 31.385 13.9918C31.5811 15.4666 31.6223 16.9595 31.5902 18.4451C31.5218 21.6864 30.9912 24.9137 30.2117 28.0553C29.4282 31.2158 28.3143 34.3022 26.9037 37.237C25.6637 39.8151 23.9961 42.0356 22.3169 44.3277C22.2395 44.4332 22.3532 44.4637 22.4282 44.3977C24.5127 42.595 25.8598 39.9247 27.0561 37.4875C28.4972 34.5535 29.5749 31.4416 30.3872 28.2785C31.1988 25.1172 31.7047 21.8701 31.8176 18.6057C31.8695 17.1128 31.811 15.6165 31.6412 14.1327C31.4987 12.8869 31.3504 11.2934 30.6929 10.2067C30.6797 10.1853 30.6435 10.2157 30.6459 10.2347Z" fill="black"/>
<path d="M39.4636 8.01092C39.5897 10.2891 39.9472 12.4939 39.892 14.7918C39.8302 17.3756 39.4809 19.9479 38.975 22.4798C38.5194 24.7629 37.885 27.0081 37.1327 29.2104C36.3154 31.6039 35.442 33.8433 33.8461 35.8199C33.7884 35.8916 33.8552 35.9468 33.9252 35.899C35.6134 34.7397 36.2726 32.2597 36.9465 30.4438C37.8322 28.0569 38.5243 25.6008 39.0673 23.1142C39.6226 20.5716 39.9654 17.982 40.0906 15.3825C40.2035 13.0253 40.3073 10.2273 39.5476 7.96067C39.532 7.917 39.462 7.98044 39.4636 8.01092Z" fill="black"/>
<path d="M49.0301 7.05931C49.5228 10.0707 49.6744 12.8721 49.1677 15.9057C48.6659 18.9106 47.5363 21.5175 46.1595 24.1985C46.092 24.3303 46.2642 24.2941 46.3169 24.2257C48.0916 21.922 48.9238 18.6494 49.4214 15.8423C49.9117 13.0789 50.2165 9.65136 49.1767 6.97197C49.1471 6.89864 49.021 7.00411 49.0301 7.05931Z" fill="black"/>
<path d="M53.7216 26.7576C51.3504 29.1297 48.0547 30.0269 44.932 30.9917C41.6446 32.0076 37.7359 32.7055 34.9601 34.8691C34.8777 34.9334 34.8308 35.1245 34.9931 35.0561C35.7354 34.7406 36.4185 34.2726 37.1411 33.9092C38.1495 33.4017 39.2478 33.0804 40.3173 32.7302C42.3293 32.0735 44.3536 31.4548 46.3632 30.7891C48.9462 29.9338 52.0194 29.0077 53.7818 26.7947C53.8221 26.7428 53.7604 26.7189 53.7216 26.7576Z" fill="black"/>
<path d="M45.8985 38.4614C44.2153 39.3405 42.5435 40.1018 40.7037 40.6028C38.6868 41.1515 36.6039 41.3081 34.5235 41.3888C32.4596 41.4687 30.3932 41.4572 28.3334 41.6335C26.7539 41.7694 24.8581 42.0867 23.5093 42.965C23.4623 42.9955 23.3907 43.119 23.4895 43.1297C24.2945 43.2171 25.1588 42.7433 25.9201 42.511C27.0159 42.1756 28.148 42.0644 29.2858 41.9639C31.367 41.7802 33.4598 41.7703 35.5451 41.6442C39.1481 41.4275 42.8764 40.583 45.915 38.5504C45.9579 38.5216 45.971 38.4235 45.8985 38.4614Z" fill="black"/>
<path d="M35.3498 46.8761C31.5177 48.5363 26.9524 48.2644 22.86 48.0502C19.5075 47.8747 15.1151 47.41 12.3468 49.6775C12.2817 49.731 12.2388 49.8999 12.3739 49.8348C16.0025 48.0988 20.1551 48.4515 24.0555 48.5372C26.0411 48.5808 28.0474 48.5141 30.0265 48.3526C31.8589 48.2035 33.7646 47.8896 35.3597 46.9313C35.3885 46.914 35.3951 46.8572 35.3498 46.8761Z" fill="black"/>
</g>
</svg>
