<svg width="350" height="31" viewBox="0 0 350 31" fill="none" xmlns="http://www.w3.org/2000/svg">
<g clip-path="url(#clip0_65_4463)">
<path d="M348.591 17.898C345.866 16.4646 343.637 14.3442 327.497 11.6385C321.975 10.7382 316.466 9.76359 310.942 8.90055C269.695 3.42967 266.106 3.63303 235.675 1.32167C219.375 0.344554 203.032 0.272634 186.71 -0.000166212C175.2 -0.0274462 163.688 0.386714 152.181 0.619834C90.2152 3.36023 111.778 1.90447 68.6031 5.74103C49.9997 8.26319 31.4409 11.1623 12.8524 13.811C10.0805 14.4086 7.26667 14.8451 4.53184 15.6015C1.50574 16.4497 1.3922 16.415 0.960257 16.8118C-1.01189 18.2452 0.224714 21.8065 3.11258 21.1518C11.5022 18.8032 11.0801 19.0264 47.0625 13.7961C48.114 14.9071 48.8619 14.6343 51.6091 14.5674C54.8647 14.488 58.1203 14.4359 61.3735 14.2896C74.5812 13.3447 87.7543 11.9038 100.955 10.83C105.499 10.5076 110.038 10.0562 114.582 9.66439C120.311 9.37671 126.042 9.09647 131.773 8.82119C161.462 8.28551 152.867 8.04495 189.691 8.44423C195.472 8.68975 190.079 8.39959 220.722 10.1554C244.568 12.3577 270.315 17.0846 293.64 21.5932C303.728 23.5549 322.437 27.3468 332.221 30.7146C333.162 30.975 334.265 30.6477 334.815 29.8268C335.598 28.9042 335.472 27.4212 334.623 26.5706C333.821 25.7968 332.614 25.7174 331.616 25.3107C327.201 23.8599 320.709 22.3124 315.901 21.2038L322.358 22.0173C328.04 22.7935 333.781 22.9894 339.473 23.6913C342.139 23.9294 345.75 24.1402 347.949 22.6026C348.507 22.2206 349.149 21.9206 349.482 21.2956C350.163 20.1573 349.761 18.5527 348.596 17.903L348.591 17.898ZM228.413 5.89479C237.704 6.24199 266.422 8.58559 276.949 9.59991C288.291 10.9664 299.63 12.3354 310.952 13.863C316.938 15.046 329.249 16.6431 336.059 18.3618C333.129 18.0766 330.192 17.8732 327.26 17.6029C294.318 13.6597 261.407 9.41391 228.413 5.89479Z" fill="#FB5B5B"/>
</g>
<defs>
<clipPath id="clip0_65_4463">
<rect width="350" height="31" fill="white"/>
</clipPath>
</defs>
</svg>
